<svg width="106" height="23" viewBox="0 0 106 23" fill="none" xmlns="http://www.w3.org/2000/svg">
<path fill-rule="evenodd" clip-rule="evenodd" d="M6.9666 18.5013L0 13.5293V22.5768H6.96927L6.9666 18.5013Z" fill="#185C98"/>
<path fill-rule="evenodd" clip-rule="evenodd" d="M0.000488281 9.16561L8.95416 15.6657L22.5873 6.96606V0L8.95416 8.69945L0.000488281 2.19934V9.16561Z" fill="#38AA3D"/>
<path fill-rule="evenodd" clip-rule="evenodd" d="M15.6184 15.7664V22.5763H22.5877V11.3193L15.6184 15.7664Z" fill="#185C98"/>
<path d="M40.2234 16.7739L40.1915 10.8749L37.3283 15.6768H35.9284L33.0809 11.0339V16.7739H30.1699V5.64368H32.7629L36.6761 12.0675L40.4939 5.64368H43.0868L43.1187 16.7739H40.2236H40.2234ZM49.6406 12.7352L48.4634 13.9913V16.7739H45.3456V5.64368H48.4634V10.2707L52.7742 5.64368H56.2419L51.6925 10.5729L56.4806 16.7741H52.822L49.6406 12.7354V12.7352ZM65.8661 10.9704C66.5024 11.193 67.0007 11.5402 67.3613 12.0119C67.7218 12.4836 67.9021 13.0533 67.9021 13.7212C67.9021 14.6963 67.5097 15.4491 66.7249 15.979C65.9402 16.5089 64.8055 16.7741 63.3208 16.7741H57.308V5.64388H63.0027C64.4238 5.64388 65.5055 5.90617 66.2478 6.43096C66.9902 6.95575 67.3613 7.66322 67.3613 8.55378C67.3613 9.08371 67.2314 9.5581 66.9717 9.97674C66.7117 10.3956 66.3433 10.7268 65.8661 10.9706V10.9704ZM60.4257 7.91749V10.0642H62.5892C63.6497 10.0642 64.1799 9.70375 64.1799 8.98291C64.1799 8.27277 63.6497 7.91749 62.5892 7.91749H60.4257ZM63.0665 14.5003C64.1694 14.5003 64.7208 14.124 64.7208 13.3713C64.7208 12.6188 64.1692 12.2423 63.0665 12.2423H60.4257V14.5003H63.0665ZM77.0013 14.6116H72.2926L71.4177 16.7741H68.2045L73.1198 5.64388H76.2217L81.1531 16.7741H77.8762L77.0013 14.6116ZM76.0787 12.2901L74.6471 8.72844L73.2155 12.2901H76.0787ZM92.6382 5.64368V16.7739H90.0452L85.1299 10.843V16.7739H82.044V5.64368H84.637L89.5523 11.5746V5.64368H92.6384H92.6382ZM99.16 12.7352L97.9828 13.9913V16.7739H94.865V5.64368H97.9828V10.2707L102.294 5.64368H105.761L101.212 10.5729L106 16.7741H102.341L99.16 12.7354V12.7352Z" fill="#185C98"/>
</svg>
